<svg xmlns="http://www.w3.org/2000/svg" width="24px" height="24px" fill="none">
	<path fill="#65977a" fill-rule="evenodd" d="M7 23.75a.75.75 0 0 1-.75-.75V1a.75.75 0 0 1 1.5 0v22a.75.75 0 0 1-.75.75Z" clip-rule="evenodd"></path>
	<path fill="#65977a" fill-rule="evenodd" d="M2.47 5.53a.75.75 0 0 1 0-1.06l4-4a.75.75 0 0 1 1.06 0l4 4a.75.75 0 0 1-1.06 1.06L7 2.06 3.53 5.53a.75.75 0 0 1-1.06 0ZM17 23.75a.75.75 0 0 1-.75-.75V1a.75.75 0 0 1 1.5 0v22a.75.75 0 0 1-.75.75Z" clip-rule="evenodd"></path>
	<path fill="#65977a" fill-rule="evenodd" d="M12.47 18.47a.75.75 0 0 1 1.06 0L17 21.94l3.47-3.47a.75.75 0 1 1 1.06 1.06l-4 4a.75.75 0 0 1-1.06 0l-4-4a.75.75 0 0 1 0-1.06Z" clip-rule="evenodd"></path>
</svg>