<svg xmlns="http://www.w3.org/2000/svg" viewBox="0 0 4680 3120">
	<g data-name="2">
		<path fill="#fff1de" d="M3620.63 1297.77c-140.94-54.87-308.59-42-431.44-130.21-101.49-72.87-151.05-200.92-249.76-277.5-62.66-48.62-140.46-72.83-217.07-93.35a3349.39 3349.39 0 0 0-547.27-98.77l110.08 6.54c-162-32-334.7-7.06-481 69.5-128.76 67.36-236.25 172.38-369.88 229.47-157.18 67.16-345.93 66.29-478.46 174.24-81.49 66.39-129.76 166.2-155.4 268.13-20.26 80.56-27.8 165.76-9.07 246.69 32.44 140.18 143 254.48 274.09 313.75s280.46 68.44 423.21 50.43c115.08-14.52 230-46.06 345.28-33.43 248.89 27.28 439.21 251.31 686.29 291.82 351.29 57.59 667.79-269.45 1023.46-254.45 57.53 2.42 116 13.84 172 .64 102.59-24.18 170.48-126.35 192.6-229.41 46.19-215.11-82.63-454.28-287.66-534.09Z" opacity=".97"/>
		<ellipse cx="2282.64" cy="2498.29" fill="#efdac2" rx="1582.67" ry="80.04"/>
		<path fill="#4061c4" d="m3074.55 555-841.67-2.69a95.76 95.76 0 0 0-96.07 95.46l-5.39 1684.27a95.77 95.77 0 0 0 95.46 96.07l841.67 2.69a95.76 95.76 0 0 0 96.07-95.46L3170 651.1a95.76 95.76 0 0 0-95.45-96.1Z"/>
		<path fill="#f7ead5" d="m3058.07 593-809-2.59a74.12 74.12 0 0 0-74.35 73.88l-5 1575.46a74.12 74.12 0 0 0 73.88 74.36l809 2.58a74.11 74.11 0 0 0 74.35-73.87l5-1575.47a74.12 74.12 0 0 0-73.88-74.35Z"/>
		<path fill="#fff" d="M2636.01 2300.82h23.76v138.77h-23.76z" transform="rotate(-89.82 2647.753 2370.216)"/>
		<path d="M1507 844.24c-2.92-1-4.17 3.64-1.27 4.59a19.46 19.46 0 0 1 8.89 5.73 11.16 11.16 0 0 1 2.48 4.57 6.2 6.2 0 0 1-.1 3.39 3 3 0 0 0-.88 3.25c-1.61-2.59-5.73-.21-4.1 2.4 1.42 2.28 3.94 2.16 6 .72a10.13 10.13 0 0 0 4-8.55c-.19-8.03-8.09-13.83-15.02-16.1Z"/>
		<path fill="#ec874b" d="M1363.67 2085.08c-212.23-78.66-497.67-112.8-626.33.28-10.28 29.48-42 57.22-48.65 82.53-17.76 173.41 10.24 252.89 195.95 321.72 212.23 78.66 501.67 55.73 630.34-57.35 52.87-46.47 83.35-136.68 72.58-222.17-14.14-75.27-98.87-78.67-223.89-125.01Z"/>
		<ellipse cx="1138.13" cy="2188.87" fill="#fdc238" rx="248.71" ry="449.77" transform="rotate(-87.13 1138.024 2188.839)"/>
		<path fill="#f99b21" d="M1316 2032.53c-162-60.06-373.06-38.76-471.31 47.59s-46.52 205 115.53 265.1 373.06 38.75 471.31-47.59 46.54-205.03-115.53-265.1Z"/>
		<path fill="#d37800" d="M1432.51 2095.54c-29-26.94-67.73-49.48-115-67-79-29.27-171.84-40.41-261.49-31.36-89.9 9.08-165.94 37.4-214.11 79.74l2.81 3.2-2.81-3.2c-20.22 17.76-34.68 37.28-43 58a110.51 110.51 0 0 0-6.32 62.21c5.5 29.7 23.19 59.12 51.17 85.07 29 26.94 67.73 49.48 115 67 61.06 22.63 130.43 34.42 200.19 34.42a611.59 611.59 0 0 0 61.3-3.06c89.9-9.08 165.94-37.4 214.11-79.74 20.22-17.77 34.69-37.28 43-58a110.51 110.51 0 0 0 6.32-62.21c-5.49-29.7-23.19-59.12-51.17-85.07Zm-9.57 196.74c-58.54 51.45-158.83 79-264 79-65.67 0-133.25-10.76-193.71-33.17-45.31-16.79-82.29-38.31-109.94-64-26.08-24.19-42.54-51.42-47.6-78.74-7.28-39.32 8.5-77.34 45.62-110 58.54-51.45 158.83-79 264-79 65.67 0 133.25 10.76 193.71 33.17 45.31 16.79 82.29 38.3 109.94 64 26.08 24.19 42.54 51.42 47.6 78.74 7.28 39.35-8.5 77.37-45.62 110Z"/>
		<path fill="#fde198" d="M1316.33 2206c25.84-22.71 17-51.86-27.42-68.33s-77-11.1-100 1l-1.62-.6c7.14-15.39 2.51-32.52-37.91-47.51-40-14.83-88.35-7.73-112.56 13.55l.24-.2-37.49-13.9-38.7 34 37.46 13.99-16.09 14.14-37.48-13.89-38.7 34 37.48 13.89-7.45 6.54-5.91 5.19-16.81 14.78 63.84 23.66 16.79-14.79 150.45 55.77-16.82 14.78 63.84 23.66 16.82-14.78 5.91-5.19 7.44-6.54 37.48 13.89 38.7-34-37.47-13.89 16.09-14.14 37.47 13.89 38.71-34-37.48-13.9Zm-191-44.31-35.39 31.1-47.3-17.54 35.38-31.1c6.52-5.72 21.57-6.83 33.3-2.49l4.05 1.5c12.16 4.52 16.74 12.61 9.99 18.55Zm108.83 35.68-39.11 34.37-47.7-17.68 39.11-34.37c6.75-5.93 21.57-6.84 33.7-2.34l4 1.5c12.61 4.66 16.78 12.61 10.03 18.54Z"/>
		<path fill="#ec874b" d="M1434.27 1822.74c-203.38-99.33-484-161.61-623.27-61.86-13.15 28.32-47.5 52.77-56.6 77.31-34.87 170.79-14.89 252.65 163.07 339.56 203.38 99.33 493.67 105.23 632.92 5.47 57.22-41 96.5-127.73 94.26-213.87-6.59-76.3-90.58-88.1-210.38-146.61Z"/>
		<ellipse cx="1199.55" cy="1903.65" fill="#fdc238" rx="248.71" ry="449.77" transform="rotate(-81.4 1201.599 1901.938)"/>
		<path fill="#f99b21" d="M1392.07 1765.73c-155.3-75.84-367.38-75.58-473.71.59s-66.63 199.41 88.67 275.25 367.37 75.58 473.7-.59 66.63-199.41-88.66-275.25Z"/>
		<path fill="#d37800" d="M1501.74 1840c-26.22-29.68-62.49-56-107.8-78.08-75.68-37-167-57.25-257.09-57.14-90.35.11-168.83 20.74-221 58.1l2.48 3.46-2.48-3.46c-21.88 15.67-38.21 33.66-48.54 53.46a110.58 110.58 0 0 0-12.46 61.27c2.52 30.1 17.21 61.13 42.48 89.73 26.22 29.68 62.49 56 107.8 78.08 75.47 36.86 166.47 57.15 256.34 57.15h.74c90.36-.12 168.83-20.75 221-58.1 21.88-15.68 38.21-33.66 48.54-53.46a110.63 110.63 0 0 0 12.47-61.27c-2.53-30.13-17.22-61.16-42.48-89.74Zm-29 194.82c-102.92 73.73-309.27 73.83-460 .22-43.42-21.2-78.09-46.28-103.05-74.54-23.56-26.67-37.23-55.39-39.56-83.08-3.34-39.84 16.13-76.12 56.31-104.9 51.52-36.91 128.94-55.36 212.34-55.36 83.21 0 172.38 18.38 247.66 55.14 43.41 21.21 78.08 46.29 103 74.55 23.56 26.66 37.24 55.39 39.56 83.07 3.34 39.83-16.13 76.08-56.31 104.88Z"/>
		<path fill="#fde198" d="M1375.17 1938.39c28-20 22.1-49.91-20.51-70.71s-75.55-18.69-99.63-8.9l-1.55-.76c8.63-14.6 5.73-32.11-33-51-38.36-18.74-87.15-16.46-113.35 2.31l.25-.18-35.91-17.54-41.89 30 35.92 17.54-17.42 12.47-35.91-17.54-41.89 30 35.92 17.54-8.06 5.78-6.39 4.58-18.21 13 61.18 29.88 18.2-13 144.18 70.42-18.2 13 61.18 29.88 18.2-13 6.39-4.58 8.06-5.77 35.92 17.54 41.88-30-35.91-17.54 17.41-12.47 35.92 17.54 41.89-30-35.92-17.54Zm-185.64-63-38.29 27.44-45.34-22.14 38.3-27.44c7-5 22.14-4.66 33.38.83l3.88 1.89c11.62 5.64 15.38 14.15 8.07 19.38Zm104.76 46.31L1252 1952l-45.71-22.33 42.32-30.32c7.31-5.23 22.15-4.66 33.77 1l3.88 1.9c11.97 5.85 15.33 14.17 8.03 19.41Z"/>
		<path fill="#ec874b" d="M1276.91 1612.6c-218-61-505.24-71.55-624.19 51.71-7.82 30.22-37.19 60.48-41.71 86.25-3.45 174.29 31 251.19 221.71 304.54 218 61 504.55 14.35 623.5-108.92 48.88-50.65 71.84-143.06 54.09-227.37-20.31-73.81-105-70.3-233.4-106.21Z"/>
		<ellipse cx="1060.66" cy="1734.56" fill="#fdc238" rx="449.77" ry="248.71" transform="rotate(-1.84 1058.822 1731.5)"/>
		<ellipse cx="1060.66" cy="1734.56" fill="#f99b21" rx="343.43" ry="189.91" transform="rotate(-1.84 1058.515 1731.184)"/>
		<path fill="#d37800" d="M1346.38 1617.37c-31.15-24.46-71.56-43.75-120.12-57.33-81.11-22.69-174.58-26.16-263.19-9.78-88.84 16.43-162.3 50.9-206.84 97-18.68 19.37-31.5 40-38.08 61.34a110.55 110.55 0 0 0-1.2 62.52c7.92 29.16 28 57 58 80.59 31.15 24.46 71.56 43.75 120.12 57.33 47.42 13.26 99.07 20 151.5 20a616.68 616.68 0 0 0 111.68-10.18c88.85-16.43 162.31-50.9 206.85-97 18.68-19.37 31.5-40 38.08-61.34a110.55 110.55 0 0 0 1.2-62.52c-7.93-29.2-27.98-57.06-58-80.63Zm-586.22 33.73-.86-.83ZM1353 1814.23c-87.91 91.11-290.85 128.47-452.39 83.29-46.53-13-85.16-31.43-114.82-54.71-28-22-46.62-47.76-53.91-74.57-10.48-38.59 2.12-77.78 36.44-113.34 62.58-64.86 183.43-102.47 306.17-102.47 49.67 0 99.68 6.16 146.22 19.18s85.16 31.43 114.82 54.71c28 22 46.62 47.76 53.91 74.57 10.48 38.59-2.12 77.78-36.44 113.34Z"/>
		<path fill="#fde198" d="M1239.67 1737c23.88-24.75 12.72-53.08-32.94-65.85s-77.68-4.74-99.61 9.24l-1.65-.47c5.85-15.92-.17-32.61-41.69-44.23-41.11-11.5-88.68-.45-111.07 22.75l.22-.23-38.49-10.76-35.78 37.08 38.49 10.76-14.87 15.42-38.5-10.71-35.78 37 38.49 10.77-6.89 7.13-5.46 5.66-15.54 16.11 65.56 18.34 15.55-16.11 154.53 43.22-15.55 16.11 65.57 18.34 15.54-16.11 5.46-5.66 6.89-7.13 38.49 10.77 35.78-37.08-38.49-10.77 14.87-15.41 38.5 10.76 35.78-37.08-38.5-10.76Zm-194-28.48-32.71 33.9-48.59-13.59 32.71-33.9c6-6.25 20.94-8.59 33-5.22l4.15 1.16c12.48 3.51 17.71 11.2 11.47 17.67Zm111.39 26.63-36.15 37.46-49-13.7 36.15-37.47c6.24-6.47 20.94-8.58 33.4-5.1l4.15 1.16c12.92 3.62 17.72 11.2 11.48 17.67Z"/>
		<path fill="#ec874b" d="M1375.34 1442.74c-197.85-109.92-474.81-186.94-619.13-94.67-14.63 27.59-50.22 50.19-60.6 74.21C651.77 1591 667.4 1673.8 840.52 1770c197.86 109.93 487.43 131.14 631.75 38.87 59.31-37.92 103.11-122.46 105.42-208.6-2.56-76.56-85.8-92.77-202.35-157.53Z"/>
		<ellipse cx="1136.67" cy="1511.15" fill="#fdc238" rx="248.71" ry="449.77" transform="rotate(-78.5 1135.28 1510.494)"/>
		<ellipse cx="1136.67" cy="1511.15" fill="#f99b21" rx="189.91" ry="343.43" transform="rotate(-78.41 1136.607 1511.136)"/>
		<path fill="#d37800" d="M1441.8 1463.52c-24.61-31-59.45-59.17-103.52-83.66-73.63-40.91-163.73-66-253.72-70.64-90.23-4.65-169.68 11.81-223.72 46.36l2.29 3.59-2.29-3.59c-22.68 14.5-39.94 31.6-51.3 50.82a110.65 110.65 0 0 0-15.68 60.53c.93 30.2 14 62 37.69 91.85 24.61 31 59.45 59.18 103.52 83.66 73.63 40.91 163.73 66 253.72 70.64q15 .76 29.65.77c77.92 0 146-16.42 194.07-47.13 22.68-14.5 39.94-31.6 51.29-50.82a110.58 110.58 0 0 0 15.69-60.53c-.93-30.2-13.97-61.96-37.69-91.85Zm-39.28 193c-47.15 30.15-113.7 44.86-186 44.86-91.23 0-191.58-23.46-273.4-68.92-42.23-23.46-75.53-50.33-99-79.87-22.11-27.87-34.26-57.28-35.11-85-1.24-40 20.12-75.16 61.76-101.78 47.15-30.15 113.7-44.86 186-44.86 91.23 0 191.58 23.46 273.4 68.92 42.23 23.46 75.53 50.34 99 79.87 22.11 27.87 34.25 57.28 35.11 85 1.23 39.98-20.12 75.17-61.76 101.79Z"/>
		<path fill="#fde198" d="M1310.22 1555.11c29-18.53 24.7-48.67-16.75-71.7s-74.45-22.65-99-14.14l-1.51-.84c9.39-14.13 7.42-31.76-30.27-52.7-37.32-20.74-86.16-21-113.31-3.68l.26-.16-34.94-19.42-43.41 27.76 34.94 19.41-18.05 11.54-34.94-19.41-43.41 27.76 34.94 19.41-8.36 5.34-6.62 4.23-18.86 12.06 59.51 33.07 18.87-12.06 140.26 77.93-18.86 12.06 59.51 33.06 18.86-12.06 6.63-4.23 8.29-5.34 34.94 19.41 43.41-27.76-34.94-19.41 18-11.54 34.94 19.42 43.41-27.76-34.85-19.36Zm-182-72.75-39.69 25.38-44.1-24.51 39.69-25.37c7.31-4.67 22.36-3.49 33.29 2.59l3.77 2.09c11.26 6.28 14.56 14.98 6.99 19.82Zm102.16 51.77-43.86 28-44.52-24.66 43.87-28c7.57-4.84 22.36-3.48 33.67 2.8l3.77 2.09c11.69 6.45 14.59 14.93 7.02 19.77Z"/>
		<path fill="#ec874b" d="M1391.93 1167.41c-223-39-509.86-21.05-616 113.42-4.78 30.85-31 63.87-32.94 90 13.87 173.77 55.76 246.88 250.85 281 222.95 39 503.49-35.81 609.6-170.28 43.61-55.25 57.29-149.48 31.26-231.62-27.48-71.49-111.44-59.53-242.77-82.52Z"/>
		<ellipse cx="1188.85" cy="1310.24" fill="#fdc238" rx="449.77" ry="248.71" transform="rotate(-8.1 1183.494 1333.576)"/>
		<path fill="#f99b21" d="M1335.57 1124.33c-170.24-29.8-373.93 29.27-455 132s-8.71 210.06 161.53 239.86 373.92-29.27 454.95-131.94 8.75-210.11-161.48-239.92Z"/>
		<path fill="#d37800" d="M1461.53 1165.26c-33.42-21.25-75.56-36.43-125.23-45.12-83-14.53-176.31-8.7-262.85 16.4-86.77 25.16-156.45 66.75-196.18 117.1-16.68 21.12-27.38 42.93-31.81 64.82a110.56 110.56 0 0 0 5 62.33c10.77 28.22 33.49 54 65.7 74.43 33.42 21.25 75.55 36.43 125.22 45.12a540.67 540.67 0 0 0 92.92 7.82 614.93 614.93 0 0 0 169.93-24.22c86.78-25.16 156.45-66.75 196.19-117.1 16.67-21.13 27.37-42.94 31.81-64.82a110.55 110.55 0 0 0-5-62.33c-10.78-28.22-33.49-53.96-65.7-74.43Zm26.12 195.23c-64.66 81.94-210.73 135.29-352.63 135.28a518.8 518.8 0 0 1-89.25-7.5c-47.59-8.33-87.86-22.81-119.68-43-30-19.08-51.14-42.89-61.05-68.84-14.26-37.36-5.61-77.61 25-116.4 64.66-81.94 210.74-135.28 352.63-135.28a520 520 0 0 1 89.26 7.49c47.59 8.34 87.85 22.82 119.68 43 30 19.09 51.13 42.9 61 68.85 14.31 37.36 5.66 77.61-24.96 116.4Z"/>
		<path fill="#fde198" d="M1367.22 1294.91c21.31-27 7.39-54.08-39.31-62.26s-77.77 3-98.2 19.09l-1.7-.3c4.25-16.42-3.4-32.44-45.87-39.87-42.05-7.36-88.29 8.35-108.26 33.65l.2-.24-39.38-6.89-31.91 40.44 39.37 6.9-13.28 16.81-39.37-6.89-31.92 40.45 39.37 6.89-6.14 7.78-4.87 6.17-13.87 17.58 67.06 11.74 13.88-17.58 158 27.67-13.87 17.58 67.06 11.74 13.87-17.58 4.87-6.17 6.15-7.78 39.37 6.89 31.92-40.45-39.37-6.89 13.27-16.81 39.37 6.89 31.92-40.45-39.37-6.89Zm-195.84-9.08-29.18 37-49.7-8.7 29.19-37c5.37-6.81 20-10.63 32.3-8.47l4.25.74c12.76 2.24 18.76 9.37 13.14 16.43Zm113.49 15.43-32.25 40.87-50.12-8.77 32.26-40.87c5.57-7 20-10.62 32.72-8.39l4.25.74c13.17 2.31 18.71 9.37 13.14 16.42Z"/>
		<path fill="#ffb9b8" d="m1793.31 2339.48 144.02-5.6v-73.65h-144.02v79.25z"/>
		<path fill="#190163" d="M2131.71 2402.92c-34.46-5.82-66 0-66 0l-114.93-93.87s-176.82-3.8-177.25 6.15 2.16 31.78 2.16 31.78 0 63.55 3 106.29c1.18 18.13 3 32.56 5.61 36.81 8.54 14.1 376.11 3.69 384.75 0 4.11-1.79 3.68-19.8-1.51-39.16-5.8-21.82-17.54-44.98-35.83-48Z"/>
		<path fill="#848484" d="m2038.41 2378-61-6.5 20-24.34a2.46 2.46 0 0 0-3.8-3.11l-22.84 27.85a2.45 2.45 0 0 0-.37 2.48 2.43 2.43 0 0 0 2 1.51s65.49 7 65.76 7a2.45 2.45 0 0 0 .25-4.89Z"/>
		<path fill="#ffb9b8" d="m1398.71 2334.11 139.65-5.86v-77.15h-139.65v83.01z"/>
		<path fill="#190163" d="M1569.18 2451.4c-4.19-15.93-10.64-35.16-10.64-44.88v-10.43c0-10.43-4.86-79.58-14.48-87.9s-145.39 1.17-145.39 1.17-11.88 3-16.75 17.58c-4.86 14.77-12.1 46.18-16.85 60.71-3.62 10.9-17.77 32-24.9 42.19a82.11 82.11 0 0 0-7.46 13.48c-2 4.92-4.87 11.83-7.58 19-.34.71-.57 1.53-.91 2.23-5.32 14.18-10 28.83-7.58 32 4.86 6.22 18.56 11.26 84.52 17.23 68.9 6.21 147.65-2.58 157.38-6.8s14.48-21 14.48-35.62a47 47 0 0 0-1.13-8.79c-.68-3.43-1.58-7.18-2.71-11.17Z"/>
		<path fill="#cb4351" d="M1730.79 1259.36s-286.17-107.81-307.92 67.1c-7.07 56.9-86.84 919.92-89.64 931.87s258.46 18.82 267.39 10 46.38-529.18 46.38-529.18 26.9 120.76 35 211 38.45 318.22 38.45 318.22h272.92s-13.59-231.29-76.69-510.92c-69.18-306.62-185.89-498.09-185.89-498.09Z"/>
		<path fill="#0947b7" d="M1620.31 933.82s-44.59-18.71-93.53 1.92c-82 65.89-104.72 150.68-92 403 1.94 34.72 2.67 60.83 155.86 77.27 79.74 4.13 163.73.68 209.76-30.54-5.71-47.78-23.48-299.89-87.25-383.6-18.79-26.78-62.22-72.11-92.84-68.05Z"/>
		<path fill="#0934a5" d="M1434.75 1338.75c-12.69-252.33 10-337.12 92-403a133.08 133.08 0 0 0-43.52 30.12c-105.5 103.91-68.09 334-73.52 435.19 31.24 0 104.08 11 180.87 15-153.16-16.48-153.89-42.59-155.83-77.31Z"/>
		<path fill="#848484" d="M1436.43 2360.41a2.13 2.13 0 0 0 1.73 3.9c16.07-7.12 42.18 10.53 54.14 19.73l-14.67-2.61c-23-4.1-66.47 7.86-68.31 8.38a2.13 2.13 0 0 0 .57 4.18 1.87 1.87 0 0 0 .57-.08c.44-.12 44.36-12.2 66.42-8.29l22.8 4.05a2.13 2.13 0 0 0 1.78-3.69c-1.67-1.48-41.25-36.08-65.03-25.57Z"/>
		<path fill="#ffb9b8" d="M1545.46 902.38s-9.21 38 0 46.47c9.75 8.49 61.71 8.47 71 0s0-27.82 0-27.82-40.28-25.47-71-18.65Z"/>
		<path fill="#ffb9b8" d="M1541.36 738.75c-50.25 26.81-61.19 194.47 69.87 182.82l5.24-.54c-1.77.21-3.51.39-5.24.54q-19.18 1.9-36.87 2.24c37.28 6.58 82.57 1.51 96.23-56.32 12.52-53-17.68-134.86-33.71-172.79-26.6 19.08-68.94 32.3-95.52 44.05Z"/>
		<path fill="#f58f9a" d="m1492.78 883.45.53-.09c-3.99-3.66-3.81-2.97-.53.09Z"/>
		<path fill="#f58f9a" d="M1541.36 738.75c26.58-11.71 68.92-25 95.52-44-5.41-12.8-9.21-20.6-9.21-20.6-90.24-108.74-162.53 78.81-162.53 78.81l23.15 56.81s-17.48-16.26-37.5-6.68c-37.61 15.09-3.09 88.54 42 80.41-3.28-3.06-3.46-3.75.53-.09l-.53.09c7.48 7 31 26.26 58 34.58a198.22 198.22 0 0 0 23.59 5.78q17.7-.36 36.87-2.24c-131.08 11.6-120.14-156.06-69.89-182.87Z"/>
		<path fill="#f58f9a" d="m1616.47 921-5.24.54c1.77-.12 3.47-.3 5.24-.54Z"/>
		<path fill="#271661" d="M1570.55 561c-39.21 37.19-33.85 76.86-33.85 76.86s-25.27-24.71-55.07 3.17c-21.87 20.45-22.88 51.32-22.88 51.32s-53.68 10.53-49.57 62.93c2.79 42.44 25.57 56.76 25.57 56.76s32.59-20.6 58.16 2.31c-9.76-85.27 92.93-100.75 92.93-100.75s93.64 8.3 102.61-81.45c9.55-95.57-78.69-108.36-117.9-71.15Z"/>
		<path d="M1582.81 754.49c-6.54-4.51-22.62-9.22-36.64 5.36a3.59 3.59 0 0 0 .1 5.07 3.66 3.66 0 0 0 1.89 1 3.59 3.59 0 0 0 3.18-1c13.2-13.73 26.78-4.85 27.41-4.43a3.58 3.58 0 0 0 4.06-5.9ZM1647.81 750.4c-14.19-10.43-27.93-1.47-28.5-1.08a3.58 3.58 0 0 0 4 6c.41-.27 10.2-6.51 20.29.89a3.58 3.58 0 1 0 4.24-5.77ZM1570.85 781.37c-3.89.6-6.25 6.28-5.27 12.71s4.93 11.15 8.82 10.55 6.26-6.28 5.28-12.7-4.93-11.15-8.83-10.56ZM1631.72 774.43c-3.89.6-6.25 6.29-5.27 12.71s4.93 11.15 8.82 10.56 6.26-6.29 5.28-12.71-4.93-11.15-8.83-10.56ZM1628.24 818.24a142.15 142.15 0 0 0-7.2-12.36c-2.16-3.34-7.54-.24-5.36 3.13a129.41 129.41 0 0 1 8.79 15.56c1.57 3.36 2.64 6.44-.46 9.22-2.28 2.05-5.27 3.54-7.85 5.13-3.4 2.1-.28 7.47 3.13 5.36 5.61-3.46 13.77-7.29 13.24-15.12-.27-3.81-2.59-7.61-4.29-10.92Z"/>
		<ellipse cx="2110.06" cy="1231.02" fill="#ec874b" rx="419.59" ry="411.78" transform="rotate(-78.38 2110.118 1231.008)"/>
		<ellipse cx="2122.3" cy="1204.26" fill="#fdc238" rx="419.59" ry="411.78" transform="rotate(-78.38 2122.372 1204.245)"/>
		<path fill="#f99b21" d="M2115.11 884.25c-173.73 5.35-311.36 153-307.39 329.69s148 315.67 321.76 310.32 311.36-153 307.4-329.69-148.03-315.66-321.77-310.32Z"/>
		<path fill="#d37800" d="M2412.52 1067.85a319.76 319.76 0 0 0-72-101.53c-61.32-58.14-141.43-88.73-225.54-86.14l.12 4.07-.12-4.07c-85.12 2.62-164.39 38.8-223.2 101.87s-90.09 145.44-88.15 232a325.19 325.19 0 0 0 28.43 126.63 319.63 319.63 0 0 0 72 101.53c58.92 55.87 135.17 86.3 215.68 86.3q4.92 0 9.86-.15c85.12-2.62 164.39-38.8 223.19-101.87s90.1-145.44 88.16-232a325.24 325.24 0 0 0-28.43-126.64Zm-70.18 348.72c-56.16 60.24-131.85 94.79-213.12 97.29-80.3 2.47-156.75-26.73-215.28-82.23a305.36 305.36 0 0 1-68.76-97 310.7 310.7 0 0 1-27.17-121c-1.86-82.72 28.06-161.46 84.24-221.72s131.86-94.78 213.13-97.29c3.15-.09 6.28-.14 9.41-.14 76.84 0 149.63 29 205.87 82.37a305.4 305.4 0 0 1 68.76 97 310.66 310.66 0 0 1 27.17 121c1.85 82.72-28.06 161.46-84.25 221.72Z"/>
		<path fill="#ec9c4b" d="M2223.3 1196.13v-1.83c26.25-9 48.42-28.91 47.4-74.58-1-45.22-38.41-76.06-82.76-74.7h.43l-.95-42.34-70.9 2.18.95 42.34-29.47.91-.95-42.34-70.9 2.18 1 42.34-13.64.42-10.82.33-30.81 1 1.62 72.12 30.81-.95 3.82 170-30.81 1 1.62 72.12 30.8-.94 10.82-.34 13.64-.42 1 42.34 70.89-2.18-.95-42.34 29.48-.91 1 42.34 70.9-2.18-1-42.34 2.13-.07c47.33-1.45 84.53-36 83.41-86.19s-27.32-70.6-57.76-76.97Zm-129.55-28.34-1.08-48.23 58.5-1.8c10.77-.33 19.85 9.29 20.11 21.25l.1 4.12c.27 12.37-8 22.52-19.13 22.86Zm67.65 116.72-64.65 2-1.09-48.63 64.65-2c11.16-.35 19.85 9.29 20.13 21.65l.09 4.12c.29 12.79-7.97 22.52-19.13 22.86Z"/>
		<path fill="#fde198" d="M2219.8 1196.41v-1.77c25.34-8.73 46.74-27.91 45.75-72-1-43.65-37.08-73.42-79.89-72.11h.42l-.92-40.87-68.45 2.1.92 40.88-28.45.87-.92-40.87-68.45 2.11.92 40.87-13.17.41-10.44.32-29.74.91 1.57 69.63 29.74-.92 3.68 164.09-29.74.91 1.56 69.62 29.74-.91 10.45-.32 13.17-.41.91 40.88 68.45-2.11-.92-40.87 28.45-.88.92 40.87 68.44-2.1-.91-40.88 2-.06c45.7-1.41 81.61-34.72 80.52-83.21s-26.22-68.03-55.61-74.18Zm-130.24-76.31 62.58-1.92c11.52-.35 21.23 9.93 21.51 22.73l.1 4.41c.3 13.22-8.52 24.08-20.45 24.45l-62.58 1.93Zm72.89 164.1-69.15 2.13-1.17-52 69.16-2.13c11.93-.36 21.23 9.94 21.53 23.17l.09 4.41c.31 13.64-8.52 24.05-20.46 24.42Z"/>
		<path fill="#0947b7" d="M1652.31 1144.56s-34-70.93-43.51-81.9l-165.49 41.41c5.66 60.58 31.82 197.92 206 214.35 49.94 1 230.29-11.19 295.43-15.74-4.15-77.82-13.32-136.42-13.32-136.42-49.55-11.58-235.17-30.53-279.11-21.7Z"/>
		<path fill="#0934a5" d="M1649.27 1318.42c-174.14-16.43-200.3-153.77-206-214.35l-2.89.73c5.68 116.24 49.2 195.66 117 217.17 103 33.92 353.57 20.24 388.17.63q-.41-10.14-.93-19.92c-65.06 4.55-245.41 16.73-295.35 15.74Z"/>
		<path fill="#ffb9b8" d="M2058 1167.48c-3.84-3.24-31-3.2-62.26-9.06 8.42-8.82 12.38-13.83-.13-16.76-14.48-.23-64.23 24.6-64.23 24.6s10.6 76 12.81 127.36c22.86-1.18 86.4-30.44 86.26-43.87 8.62-4.92 13-18.33 11-31.09 10.06-4.27 14.77-18.73 3.46-28.29 22.65-12.12 16.93-19.65 13.09-22.89Z"/>
		<path d="m1732.64 1553.26-86.1 42.1-2.54 143.73a3.06 3.06 0 0 0 3 3.12h.06a3.07 3.07 0 0 0 3.06-3l2.52-140 82.74-40.46a3.06 3.06 0 1 0-2.69-5.5Z"/>
		<path fill="#fff" d="M1453.25 1503a189.37 189.37 0 0 1-8.93 5.31 1.75 1.75 0 0 0 .85 3.28 1.79 1.79 0 0 0 .86-.23c3.1-1.73 6.16-3.55 9.09-5.41a1.75 1.75 0 1 0-1.87-3ZM1514.75 1432a1.76 1.76 0 0 0-2.25 1c-1.17 3.19-2.51 6.41-4 9.55a1.76 1.76 0 0 0 .84 2.33 1.8 1.8 0 0 0 .74.16 1.76 1.76 0 0 0 1.59-1c1.52-3.24 2.9-6.55 4.11-9.83a1.76 1.76 0 0 0-1.03-2.21ZM1504.82 1453.4a1.75 1.75 0 0 0-2.4.59c-1.77 2.93-3.68 5.85-5.69 8.66a1.76 1.76 0 0 0 1.42 2.77 1.77 1.77 0 0 0 1.43-.73c2.06-2.89 4-5.89 5.83-8.89a1.75 1.75 0 0 0-.59-2.4ZM1411.17 1523.25c-2.82 1-5.72 2-8.63 3a1.75 1.75 0 0 0 .54 3.42 1.7 1.7 0 0 0 .54-.09c3-1 5.89-2 8.74-3a1.75 1.75 0 1 0-1.19-3.29ZM1519.77 1408.92a1.76 1.76 0 0 0-1.84 1.65 65.61 65.61 0 0 1-1.69 10.09 1.75 1.75 0 0 0 1.3 2.1 1.83 1.83 0 0 0 .4 0 1.74 1.74 0 0 0 1.7-1.35 68 68 0 0 0 1.78-10.69 1.75 1.75 0 0 0-1.65-1.8ZM1432.78 1514.23c-3.08 1.48-6.27 2.91-9.49 4.28a1.75 1.75 0 0 0 .68 3.36 1.8 1.8 0 0 0 .68-.14c3.27-1.38 6.51-2.85 9.64-4.34a1.75 1.75 0 0 0-1.51-3.16ZM1472.1 1489.18c-2.6 2.19-5.34 4.36-8.14 6.43a1.75 1.75 0 0 0 1 3.16 1.71 1.71 0 0 0 1-.35c2.85-2.11 5.65-4.32 8.31-6.57a1.75 1.75 0 1 0-2.26-2.67ZM1488.72 1472.83c-2.24 2.58-4.62 5.13-7.07 7.58a1.75 1.75 0 0 0 0 2.47 1.74 1.74 0 0 0 2.48 0c2.51-2.51 4.94-5.12 7.23-7.76a1.75 1.75 0 0 0-.18-2.47 1.73 1.73 0 0 0-2.46.18ZM1384 2073.87a1.75 1.75 0 0 0-1.92 1.56l-1.07 10.44a1.74 1.74 0 0 0 1.56 1.92h.18a1.75 1.75 0 0 0 1.74-1.57l1.08-10.44a1.77 1.77 0 0 0-1.57-1.91ZM1379.22 2120.87a1.75 1.75 0 0 0-1.92 1.56l-1.08 10.44a1.77 1.77 0 0 0 1.57 1.92h.18a1.76 1.76 0 0 0 1.74-1.57l1.07-10.44a1.74 1.74 0 0 0-1.56-1.91ZM1381.63 2097.37a1.75 1.75 0 0 0-1.92 1.56l-1.07 10.44a1.75 1.75 0 0 0 1.56 1.92h.18a1.75 1.75 0 0 0 1.74-1.57l1.07-10.44a1.75 1.75 0 0 0-1.56-1.91ZM1388.87 2026.87a1.75 1.75 0 0 0-1.92 1.56l-1.07 10.45a1.75 1.75 0 0 0 1.56 1.92h.18a1.75 1.75 0 0 0 1.74-1.58l1.07-10.44a1.75 1.75 0 0 0-1.56-1.91ZM1376.8 2144.37a1.74 1.74 0 0 0-1.92 1.56l-1.07 10.44a1.75 1.75 0 0 0 1.56 1.92h.18a1.75 1.75 0 0 0 1.74-1.57l1.08-10.45a1.75 1.75 0 0 0-1.57-1.9ZM1386.46 2050.37a1.74 1.74 0 0 0-1.92 1.56l-1.08 10.45a1.77 1.77 0 0 0 1.57 1.92h.18a1.76 1.76 0 0 0 1.74-1.57l1.07-10.44a1.75 1.75 0 0 0-1.56-1.92ZM1364.74 2261.86a1.75 1.75 0 0 0-1.92 1.56l-.19 1.79a1.75 1.75 0 0 0 1.57 1.91h.18a1.76 1.76 0 0 0 1.74-1.57l.18-1.78a1.75 1.75 0 0 0-1.56-1.91ZM1367.15 2238.36a1.75 1.75 0 0 0-1.92 1.56l-1.07 10.45a1.75 1.75 0 0 0 1.56 1.92h.18a1.75 1.75 0 0 0 1.74-1.58l1.07-10.44a1.75 1.75 0 0 0-1.56-1.91ZM1391.28 2003.37a1.76 1.76 0 0 0-1.92 1.56l-1.07 10.45a1.75 1.75 0 0 0 1.56 1.92h.18a1.75 1.75 0 0 0 1.74-1.57l1.07-10.45a1.75 1.75 0 0 0-1.56-1.91ZM1374.39 2167.86a1.77 1.77 0 0 0-1.92 1.57l-1.07 10.44a1.75 1.75 0 0 0 1.56 1.92h.18a1.75 1.75 0 0 0 1.74-1.57l1.07-10.45a1.75 1.75 0 0 0-1.56-1.91ZM1372 2191.36a1.76 1.76 0 0 0-1.92 1.56l-1.07 10.45a1.75 1.75 0 0 0 1.56 1.92h.18a1.76 1.76 0 0 0 1.74-1.57l1.07-10.45a1.75 1.75 0 0 0-1.56-1.91ZM1369.56 2214.86a1.76 1.76 0 0 0-1.92 1.56l-1.07 10.45a1.75 1.75 0 0 0 1.56 1.92h.19a1.74 1.74 0 0 0 1.73-1.57l1.08-10.45a1.76 1.76 0 0 0-1.57-1.91ZM1417.83 1744.88a1.76 1.76 0 0 0-1.92 1.57l-1.07 10.44a1.75 1.75 0 0 0 1.56 1.92h.18a1.75 1.75 0 0 0 1.74-1.57l1.07-10.45a1.75 1.75 0 0 0-1.56-1.91ZM1420.24 1721.38a1.77 1.77 0 0 0-1.92 1.57l-1.07 10.44a1.75 1.75 0 0 0 1.56 1.92h.18a1.75 1.75 0 0 0 1.74-1.57l1.07-10.45a1.75 1.75 0 0 0-1.56-1.91ZM1432.31 1603.89a1.75 1.75 0 0 0-1.92 1.56l-1.07 10.45a1.75 1.75 0 0 0 1.56 1.92h.18a1.76 1.76 0 0 0 1.74-1.57l1.07-10.44a1.75 1.75 0 0 0-1.56-1.92ZM1427.48 1650.89a1.76 1.76 0 0 0-1.92 1.56l-1.07 10.44a1.74 1.74 0 0 0 1.56 1.92h.18a1.75 1.75 0 0 0 1.74-1.57l1.07-10.44a1.75 1.75 0 0 0-1.56-1.91ZM1425.07 1674.39a1.75 1.75 0 0 0-1.92 1.56l-1.07 10.44a1.75 1.75 0 0 0 1.56 1.92h.18a1.75 1.75 0 0 0 1.74-1.57l1.07-10.44a1.74 1.74 0 0 0-1.56-1.91ZM1422.65 1697.89a1.74 1.74 0 0 0-1.91 1.56l-1.08 10.44a1.75 1.75 0 0 0 1.56 1.92h.18a1.75 1.75 0 0 0 1.74-1.57l1.08-10.44a1.74 1.74 0 0 0-1.57-1.91ZM1429.89 1627.39a1.76 1.76 0 0 0-1.89 1.61l-1.07 10.44a1.74 1.74 0 0 0 1.56 1.92h.19a1.74 1.74 0 0 0 1.73-1.57l1.08-10.44a1.76 1.76 0 0 0-1.6-1.96ZM1434.72 1580.39a1.75 1.75 0 0 0-1.92 1.56l-1.07 10.45a1.75 1.75 0 0 0 1.56 1.92h.18a1.75 1.75 0 0 0 1.74-1.58l1.07-10.44a1.75 1.75 0 0 0-1.56-1.91ZM1439.55 1533.39a1.76 1.76 0 0 0-1.92 1.57l-1.08 10.44a1.77 1.77 0 0 0 1.57 1.92h.18a1.76 1.76 0 0 0 1.74-1.57l1.07-10.45a1.75 1.75 0 0 0-1.56-1.91ZM1442 1509.89a1.77 1.77 0 0 0-1.92 1.57l-1.08 10.44a1.75 1.75 0 0 0 1.56 1.92h.18a1.75 1.75 0 0 0 1.74-1.57l1.07-10.45a1.75 1.75 0 0 0-1.55-1.91ZM1437.13 1556.89a1.76 1.76 0 0 0-1.92 1.56l-1.07 10.45a1.75 1.75 0 0 0 1.56 1.92h.18a1.75 1.75 0 0 0 1.74-1.57l1.08-10.45a1.76 1.76 0 0 0-1.57-1.91ZM1405.76 1862.38a1.75 1.75 0 0 0-1.92 1.56l-1.07 10.44a1.74 1.74 0 0 0 1.56 1.92h.18a1.75 1.75 0 0 0 1.74-1.57l1.07-10.44a1.75 1.75 0 0 0-1.56-1.91ZM1398.52 1932.87a1.77 1.77 0 0 0-1.92 1.57l-1.07 10.44a1.75 1.75 0 0 0 1.56 1.92h.18a1.75 1.75 0 0 0 1.74-1.57l1.07-10.45a1.75 1.75 0 0 0-1.56-1.91ZM1400.94 1909.38a1.74 1.74 0 0 0-1.92 1.56l-1.08 10.44a1.75 1.75 0 0 0 1.57 1.92h.18a1.74 1.74 0 0 0 1.73-1.57l1.08-10.44a1.74 1.74 0 0 0-1.56-1.91ZM1403.35 1885.88a1.74 1.74 0 0 0-1.92 1.56l-1.07 10.44a1.75 1.75 0 0 0 1.56 1.92h.18a1.75 1.75 0 0 0 1.74-1.57l1.07-10.44a1.75 1.75 0 0 0-1.56-1.91ZM1396.11 1956.37a1.76 1.76 0 0 0-1.92 1.57l-1.07 10.44a1.75 1.75 0 0 0 1.56 1.92h.18a1.75 1.75 0 0 0 1.74-1.57l1.07-10.45a1.75 1.75 0 0 0-1.56-1.91ZM1413 1791.88a1.76 1.76 0 0 0-1.92 1.56l-1.07 10.45a1.75 1.75 0 0 0 1.56 1.92h.18a1.75 1.75 0 0 0 1.74-1.58l1.07-10.44a1.75 1.75 0 0 0-1.56-1.91ZM1415.41 1768.38a1.74 1.74 0 0 0-1.91 1.56l-1.08 10.45a1.75 1.75 0 0 0 1.57 1.92h.18a1.74 1.74 0 0 0 1.73-1.57l1.08-10.45a1.75 1.75 0 0 0-1.57-1.91ZM1410.59 1815.38a1.76 1.76 0 0 0-1.92 1.56l-1.07 10.45a1.75 1.75 0 0 0 1.56 1.92h.18a1.75 1.75 0 0 0 1.74-1.58l1.07-10.44a1.75 1.75 0 0 0-1.56-1.91ZM1393.7 1979.87a1.75 1.75 0 0 0-1.92 1.56l-1.08 10.45a1.76 1.76 0 0 0 1.57 1.92h.18a1.76 1.76 0 0 0 1.74-1.57l1.07-10.45a1.75 1.75 0 0 0-1.56-1.91ZM1408.18 1838.88a1.74 1.74 0 0 0-1.92 1.56l-1.08 10.45a1.74 1.74 0 0 0 1.57 1.91h.18a1.74 1.74 0 0 0 1.73-1.57l1.08-10.44a1.75 1.75 0 0 0-1.56-1.91ZM1744.52 2139.71l-2-10.32a1.75 1.75 0 1 0-3.43.68l2 10.31a1.75 1.75 0 0 0 1.71 1.42 1.27 1.27 0 0 0 .34 0 1.74 1.74 0 0 0 1.38-2.09ZM1652.15 1675.48l-2.1-10.44a1.75 1.75 0 1 0-3.43.69l2.1 10.44a1.74 1.74 0 0 0 1.71 1.41 1.32 1.32 0 0 0 .34 0 1.75 1.75 0 0 0 1.38-2.1ZM1661.47 1722l-2.07-10.33a1.75 1.75 0 1 0-3.43.69l2.06 10.33a1.75 1.75 0 0 0 1.72 1.4 2 2 0 0 0 .34 0 1.76 1.76 0 0 0 1.38-2.09ZM1675.39 1791.68l-2.06-10.31a1.75 1.75 0 1 0-3.43.68l2.06 10.31a1.74 1.74 0 0 0 1.71 1.41 2.07 2.07 0 0 0 .35 0 1.75 1.75 0 0 0 1.37-2.09ZM1670.75 1768.47l-2.06-10.31a1.75 1.75 0 1 0-3.43.68l2.06 10.32a1.75 1.75 0 0 0 1.71 1.4 2.07 2.07 0 0 0 .35 0 1.75 1.75 0 0 0 1.37-2.09ZM1666.11 1745.25l-2.06-10.31a1.75 1.75 0 1 0-3.43.68l2.06 10.32a1.76 1.76 0 0 0 1.71 1.41 1.39 1.39 0 0 0 .35 0 1.75 1.75 0 0 0 1.37-2.1ZM1656.81 1698.78l-2.07-10.34a1.75 1.75 0 1 0-3.43.69l2.07 10.34a1.76 1.76 0 0 0 1.71 1.41 1.39 1.39 0 0 0 .35 0 1.75 1.75 0 0 0 1.37-2.1ZM1765.11 2245.63a1.75 1.75 0 0 0-3.44.65q1.08 5.68 1.95 10.37a1.76 1.76 0 0 0 1.72 1.43 1.66 1.66 0 0 0 .32 0 1.75 1.75 0 0 0 1.4-2c-.58-3.19-1.23-6.66-1.95-10.45ZM1762.64 2232.68q-.95-4.93-2-10.34a1.75 1.75 0 1 0-3.43.66l2 10.34a1.76 1.76 0 0 0 1.72 1.42 1.84 1.84 0 0 0 .33 0 1.75 1.75 0 0 0 1.38-2.08ZM1758.15 2209.41l-2-10.33a1.75 1.75 0 1 0-3.44.67l2 10.33a1.74 1.74 0 0 0 1.71 1.41h.34a1.74 1.74 0 0 0 1.39-2.08ZM1749.08 2162.93l-2-10.32a1.75 1.75 0 0 0-3.44.68l2 10.32a1.74 1.74 0 0 0 1.71 1.41 1.87 1.87 0 0 0 .34 0 1.75 1.75 0 0 0 1.39-2.09ZM1753.63 2186.16l-2-10.32a1.75 1.75 0 1 0-3.43.67l2 10.32a1.76 1.76 0 0 0 1.72 1.42h.34a1.77 1.77 0 0 0 1.37-2.09ZM1680 1814.88l-2-10.31a1.75 1.75 0 0 0-3.44.69l2.06 10.31a1.75 1.75 0 0 0 1.72 1.4 2 2 0 0 0 .34 0 1.75 1.75 0 0 0 1.32-2.09ZM1721.59 2023.67l-2-10.31a1.75 1.75 0 1 0-3.44.68l2.05 10.31a1.75 1.75 0 0 0 1.71 1.41 2.07 2.07 0 0 0 .35 0 1.75 1.75 0 0 0 1.33-2.09ZM1740 2116.49l-2-10.31a1.75 1.75 0 1 0-3.43.68l2 10.31a1.75 1.75 0 0 0 1.71 1.41 1.87 1.87 0 0 0 .34 0 1.75 1.75 0 0 0 1.38-2.09ZM1717 2000.47l-2-10.31a1.75 1.75 0 1 0-3.43.68l2 10.31a1.76 1.76 0 0 0 1.72 1.41 1.32 1.32 0 0 0 .34 0 1.74 1.74 0 0 0 1.37-2.09ZM1712.38 1977.27l-2.05-10.31a1.75 1.75 0 1 0-3.43.68l2 10.31a1.74 1.74 0 0 0 1.71 1.41 2 2 0 0 0 .34 0 1.75 1.75 0 0 0 1.43-2.09ZM1730.78 2070.08l-2-10.32a1.75 1.75 0 0 0-3.43.68l2 10.31a1.76 1.76 0 0 0 1.72 1.42 2.09 2.09 0 0 0 .34 0 1.74 1.74 0 0 0 1.37-2.09ZM1735.37 2093.28l-2-10.31a1.75 1.75 0 1 0-3.44.68l2 10.31a1.75 1.75 0 0 0 1.71 1.41 2.07 2.07 0 0 0 .35 0 1.75 1.75 0 0 0 1.38-2.09ZM1726.19 2046.87l-2-10.31a1.75 1.75 0 1 0-3.43.68l2 10.31a1.74 1.74 0 0 0 1.71 1.41 1.87 1.87 0 0 0 .34 0 1.75 1.75 0 0 0 1.38-2.09ZM1689.28 1861.28l-2-10.31a1.75 1.75 0 1 0-3.43.69l2 10.31a1.76 1.76 0 0 0 1.72 1.41 2.09 2.09 0 0 0 .34 0 1.75 1.75 0 0 0 1.37-2.1ZM1693.91 1884.48l-2.05-10.31a1.75 1.75 0 0 0-3.44.69l2.06 10.31a1.73 1.73 0 0 0 1.71 1.4h.35a1.75 1.75 0 0 0 1.37-2.09ZM1684.66 1838.08l-2.06-10.31a1.75 1.75 0 1 0-3.43.69l2 10.31a1.76 1.76 0 0 0 1.72 1.41 1.32 1.32 0 0 0 .34 0 1.76 1.76 0 0 0 1.43-2.1ZM1698.53 1907.68l-2-10.31a1.75 1.75 0 1 0-3.43.69l2 10.3a1.75 1.75 0 0 0 1.71 1.41 2.07 2.07 0 0 0 .35 0 1.75 1.75 0 0 0 1.37-2.09ZM1703.15 1930.88l-2.05-10.31a1.75 1.75 0 1 0-3.43.68l2 10.31a1.76 1.76 0 0 0 1.71 1.41 2.07 2.07 0 0 0 .35 0 1.75 1.75 0 0 0 1.42-2.09ZM1707.75 1954l-2-10.25a1.75 1.75 0 1 0-3.43.69l2 10.31a1.7 1.7 0 0 0 1.69 1.37h.36a1.78 1.78 0 0 0 1.38-2.12Z"/>
		<path d="M1621.39 857.61a12.67 12.67 0 0 1-2 3.53 39.31 39.31 0 0 0 4.94.4ZM1582.79 849.52a39.21 39.21 0 0 0 5.48 2.68c-.37-1.85-.63-3.67-.81-5.36a3.39 3.39 0 0 0-4.33-2.84c-1.9 1-2.75 4.06-.34 5.52Z"/>
		<path d="M1624.38 855.33c-6.86-.08-14-2.68-20.53-4.64-5.87-1.77-12.63-3.33-17.92-6.53a2.81 2.81 0 0 0-2.8-.16 3.39 3.39 0 0 1 4.33 2.84c.18 1.69.44 3.51.81 5.36 4.53 1.84 9.45 3.12 13.93 4.48 5.5 1.66 11.38 3.63 17.24 4.46a12.67 12.67 0 0 0 2-3.53l3 3.93a39.31 39.31 0 0 1-4.94-.4c-3.4 4.41-9.68 7.52-14.63 8.14-10.4 1.29-14.77-8.22-16.54-17.08a39.21 39.21 0 0 1-5.48-2.68c-2.41-1.46-1.56-4.54.34-5.52a2.48 2.48 0 0 0-1.87 2.84c1.34 13 6.85 29.72 22.86 28.71 9.3-.59 20.15-7.16 23.25-16.29a3.13 3.13 0 0 0-3.05-3.93Z"/>
		<circle cx="3194.41" cy="1245.49" r="427.4" fill="#6a9373" transform="rotate(-45 3194.406 1245.484)"/>
		<circle cx="3194.41" cy="1224.83" r="427.4" fill="#9bcea8" transform="rotate(-45 3194.403 1224.835)"/>
		<path fill="#51a9a0" d="M3216.75 899.25c-179.82-12.34-335.58 123.43-347.92 303.24s123.43 335.58 303.24 347.92S3507.65 1427 3520 1247.17s-123.44-335.58-303.25-347.92Z"/>
		<path fill="#547a5b" d="M3216.75 899.25c-179.82-12.34-335.58 123.43-347.92 303.24s123.43 335.58 303.24 347.92S3507.65 1427 3520 1247.17s-123.44-335.58-303.25-347.92Zm296.81 347.48c-12.1 176.26-164.79 309.34-341 297.25s-309.34-164.78-297.25-341 164.78-309.34 341-297.25 309.34 164.74 297.25 341Z"/>
		<path fill="#c9e5c3" d="M3229.67 1179.29v-62c24 5.87 49.68 16.56 71.58 32.05l43.81-71.59a243 243 0 0 0-112.72-41.67v-32h-55.56v30.45c-81.74 5.88-127.68 49.68-127.68 112.72v1.07c0 66.24 43.81 95.62 129.82 115.39v64.11c-33.13-5.35-65.18-19.77-99.37-43.81l-48.08 71c40.07 28.85 91.89 47.55 144.24 52.89v53.42h55.56V1409c75.86-7 126.07-47 126.07-112.19v-1.07c0-66.23-42.73-96.68-127.67-116.45Zm-50.22-9.08c-28.85-8-36.33-16-36.33-29.91v-1.07c0-13.89 10.15-24.58 36.33-26.71Zm85.47 133.56c0 15.49-11.21 24.57-35.79 27.24v-58.76c27.78 8 35.79 16 35.79 30.45Z"/>
		<path fill="#f8d39f" d="M3748.19 1175.31c-13 53.53-48.48 76.4-67 80.81 46.38 17.42 65.66 58.84 65.66 92.25.87-40.62 39.07-84.71 63.31-95.46-39.93-10.01-60.29-51.99-61.97-77.6ZM3901.65 1370.06c-9.38 38.56-34.94 55-48.25 58.23 33.43 12.55 47.32 42.4 47.32 66.47.63-29.27 28.15-61 45.62-68.79-28.81-7.21-43.48-37.46-44.69-55.91ZM3336 624c-11.13 45.78-41.47 65.35-57.27 69.12 39.68 14.9 56.16 50.32 56.16 78.9.75-34.74 33.43-72.46 54.16-81.65-34.2-8.6-51.61-44.51-53.05-66.37Z"/>
		<g style="isolation:isolate">
			<path fill="#c1165c" d="M2703.13 1195.3c-7.67 4.46-13.58 10.33-16.94 16.19s-4.16 11.72-1.61 16.19l6.36 11c-2.55-4.47-1.74-10.33 1.61-16.2s9.27-11.71 16.94-16.18l24.82-14.46-6.35-11ZM2770.73 1078.61l-1.11.63c-7.68 4.49-13.6 10.36-17 16.22-2.68 4.69-3.74 9.36-2.74 13.33l6.36 11c-1-4 .06-8.65 2.74-13.34 3.36-5.85 9.27-11.73 17-16.22l1.12-.63c15-8.24 30.82-8 35.82.73l-6.35-11c-5-8.71-20.87-8.97-35.84-.72ZM2587.46 1125.7c-8.18 0-17.21 2.71-25.36 7.22-9 5-16.94 12.11-21.49 20-4.34 7.59-4.74 14.46-1.88 19.42l6.36 11c-2.87-5-2.46-11.84 1.88-19.42 4.54-7.93 12.48-15 21.5-20 8.14-4.5 17.17-7.24 25.35-7.22l171.8.5-6.35-11Z"/>
			<path fill="#f61e6b" d="M2812.92 1090.36c-5.12-8.93-21.66-9-36.94-.1-7.69 4.49-13.6 10.37-17 16.22s-4.16 11.73-1.6 16.19l8.2 14.55-171.8-.5c-17.22 0-38.2 12.17-46.85 27.26s-1.68 27.35 15.54 27.4l171.8.49-24.82 14.46c-7.67 4.47-13.58 10.33-16.94 16.18s-4.16 11.73-1.61 16.2c5 9 21.58 9 36.94.1l97.35-56.62c7.66-4.46 13.53-10.32 16.92-16.23.22-.38.42-.75.62-1.14s.49-.78.72-1.18c3.36-5.87 4.16-11.71 1.67-16.23Z"/>
		</g>
		<g style="isolation:isolate">
			<path fill="#c1165c" d="m2663.44 1367.26-24.82-14.45-6.36 11 24.82 14.46c7.67 4.47 13.58 10.33 16.94 16.19s4.16 11.72 1.61 16.19l6.36-11c2.55-4.47 1.74-10.33-1.61-16.2s-9.27-11.72-16.94-16.19ZM2597 1251.2l-1.11-.63c-15-8.24-30.84-8-35.83.74l-6.36 11c5-8.72 20.87-9 35.83-.74l1.11.63c7.69 4.5 13.61 10.37 17 16.23 2.67 4.69 3.72 9.36 2.73 13.33l6.37-11c1-4-.07-8.64-2.75-13.33-3.44-5.87-9.36-11.74-16.99-16.23ZM2804.47 1304.88c-8.15-4.5-17.18-7.24-25.36-7.22l-171.8.49-6.36 11 171.8-.49c8.18 0 17.21 2.72 25.36 7.22 9 5 16.95 12.11 21.49 20 4.35 7.58 4.75 14.45 1.88 19.41l6.37-11c2.86-5 2.46-11.84-1.89-19.43-4.54-7.86-12.48-15-21.49-19.98Z"/>
			<path fill="#f61e6b" d="m2772.75 1308.69-171.8.49 8.2-14.55c2.56-4.46 1.77-10.32-1.59-16.18s-9.28-11.73-17-16.23c-15.28-8.87-31.82-8.82-36.94.11l-32.23 57c-2.49 4.53-1.7 10.36 1.67 16.24.22.4.46.78.71 1.18s.41.76.62 1.13c3.39 5.92 9.27 11.78 16.93 16.23l97.34 56.63c15.37 8.93 31.91 8.89 36.94-.11 2.55-4.47 1.75-10.33-1.61-16.19s-9.27-11.72-16.94-16.19l-24.82-14.46 171.8-.48c17.22-.06 24.18-12.32 15.54-27.4s-29.57-27.27-46.82-27.22Z"/>
		</g>
		<path d="M1713.68 1334c-85.83 11.36-152.23-2.54-197.37-41.31-29.24-25.11-49.71-60.8-60.86-106.09-9.2-37.38-9.91-73-10.3-92.17-.08-4.35-.16-8.11-.31-10.92a3.06 3.06 0 1 0-6.12.33c.15 2.71.22 6.42.31 10.72.39 19.38 1.11 55.47 10.47 93.5 11.46 46.55 32.59 83.32 62.82 109.28 36.12 31 85.19 46.62 146.35 46.62a425 425 0 0 0 55.81-3.89 3.06 3.06 0 0 0-.8-6.07ZM1729 1139.77c-.35 0-35.18-.48-74.64 1.62-5.93-14.28-41.62-100.27-47.5-114.78a3.06 3.06 0 1 0-5.68 2.3c6.39 15.78 47.93 115.82 48.35 116.83l.83 2 2.17-.12c40.13-2.22 76-1.73 76.38-1.73a3 3 0 0 0 3.11-3 3.06 3.06 0 0 0-3.02-3.12Z"/>
		<path fill="#51a9a0" d="M3463.56 1801.28c-31.31 16.65-152.06 59.76-192.15 79.14-49.43 23.89-77 63.67-77 63.67l149.76 154.28s42.44-78.19 79.48-108c57.19-46 172.95-62.14 216.43-93.87 42.94-31.33 74.84-70.42 74.84-70.42L3558.29 1730s-37.49 40.83-94.73 71.28Z"/>
		<path fill="#9bcea8" d="M3557.2 1743.59c-.47.42-47.54 42-79.22 58.81-22.28 11.81-63.15 28.39-102.68 44.42-30 12.15-58.28 23.64-77.81 32.73-62.4 29-81.39 60-82.17 61.27l-1.8 3 124.66 133.44 3.12-5.57c.32-.58 32.62-58 61.22-81.65 38.07-31.52 81.34-44.36 123.18-56.78 29.92-8.87 58.17-17.26 84.78-31.91a356.16 356.16 0 0 0 65.88-46.71c14.77-13.32 22.39-22.66 22.71-23.05l3.37-4.16-142.67-86.13Z"/>
		<path fill="#51a9a0" d="M3402.69 1840.63c-19.76 9.69-32.64 34.08-5.11 66.53s80.11 39.09 103.12 31.11 29.66-49.36 7.23-71.75-60.41-47.87-105.24-25.89Z"/>
		<path fill="#408c84" d="M3326.83 1937.82c-4.3 3.4-3.88 11.07.92 17.13s12.17 8.21 16.47 4.81 3.88-11.08-.92-17.14-12.18-8.2-16.47-4.8ZM3573.87 1811c-3.74 4-2.18 11.53 3.48 16.8s13.27 6.28 17 2.27 2.17-11.53-3.49-16.8-13.26-6.27-16.99-2.27ZM3453.68 1874.73c-7.85 3.33-14.95 5.43-20.22 2.23-4.35-2.64-1.54-10.4 5.15-14.38 9.87-5.87 13.33-1.35 13.33-1.35l12.71-5s-12.81-12.15-29.29-4.2l-5.31-4.14-8.08 4.08 4.7 4.47c-9.74 6.39-11 20-6.52 26.12 10.28 14.2 28.38 8.62 35.37 4.65 8.36-4.75 16.11-5.9 19.5-3.09 10.69 8.88 5.12 14.15-4 18.7-12.35 6.12-17.65-1.59-17.65-1.59l-17.83 9s6 16.87 40.21 4.83l4.76 5.87 11.29-5.31-5.53-5.68c15.68-8.35 16.19-20.18 7.29-30-12.01-13.32-32.04-8.53-39.88-5.21Z"/>
		<path fill="#51a9a0" d="M3641.32 2097.52c-37.8-41.18-82.4-69.92-82.4-69.92l-82 175s47.06 34.37 85.61 90.6c21.09 30.75 80.33 151.86 105.3 191.47 30.77 48.83 75.58 73 75.58 73L3887 2383s-86.69-35.15-122.18-70.34c-54.77-54.38-85.23-173.44-123.5-215.14Z"/>
		<path fill="#9bcea8" d="M3767 2334.74c-37.4-36.07-55.91-79.77-73.81-122-12.79-30.21-24.88-58.75-43.32-84.83a374.2 374.2 0 0 0-56.55-63.35c-15.65-13.87-26.31-20.73-26.76-21l-4.75-3-73.21 159.21 2.68 2.42c.49.44 49.5 44.73 70.77 75.86 14.95 21.89 37.08 62.65 58.49 102.07 16.22 29.89 31.55 58.12 43.35 77.45 37.69 61.79 72.24 78 73.69 78.65l3.36 1.53 124.77-146-6.19-2.61c-.65-.3-64.42-27.29-92.52-54.4Z"/>
		<path fill="#51a9a0" d="M3625.51 2239.13c-20.76 26.08-42.91 68.75-14.67 113 12.45 19.5 39.44 30.1 70.12-2.48s31.42-88.31 20.38-111.41-55.07-25.18-75.83.89ZM3724.4 2402.2c-5.77 5.73-7.15 13.69-3.09 17.78s12 2.75 17.8-3 7.14-13.69 3.08-17.77-12.03-2.74-17.79 2.99ZM3577.28 2153.11c-4.63-3.43-12.3-.92-17.14 5.62s-5 14.6-.38 18 12.31.92 17.14-5.61 5.01-14.58.38-18.01Z"/>
		<path fill="#408c84" d="m3685.55 2261.43-6.87-11.18-5.29 6.45c-10.57-15.4-23-14.54-32.24-4.08-12.43 14.07-5.07 34.43-.67 42.24s7.43 15 4.7 20.86c-2.24 4.85-10.69 2.84-15.63-3.69-7.29-9.62-3-13.77-3-13.77l-6.77-12.68s-11.19 14.81-1 31.09l-3.69 6 5.21 8 4.12-5.44c7.82 9.42 22.15 9.11 28.05 3.74 13.63-12.41 5.68-30.66.7-37.5-5.94-8.18-8.06-16.14-5.52-20 8-12.22 14.18-7 20 2 7.86 12.19.42 18.64.42 18.64l11.51 17.57s16.92-8.26.32-42.58Z"/>
		<path fill="#51a9a0" d="M3810.9 1545.12c-25.32-25.11-59.66-74.78-59.66-74.78l-200 85.39s10.05 51.33 59.54 104.41c28.86 30.95 132.82 8.83 181.56 92.35 42.8 73.35 35.53 181.37 35.53 181.37L4069.13 1793s4.95-101.65-59.29-169.61c-43.52-46.01-143.08-22.89-198.94-78.27Z"/>
		<path fill="#9bcea8" d="M3802.65 1557.39c-21.68-21.2-52.72-72.58-52.72-72.58l-181 79.88s12.49 42.56 56.89 84.79c26.06 24.79 142.6 9.24 184.23 79.87 36.56 62 37.75 167.43 37.75 167.43l206.09-118s-6.32-95.22-61.3-152.64c-37.21-38.84-142.13-21.96-189.94-68.75Z"/>
		<path fill="#9bcea8" d="M3789.3 1558.82c-20.08-23.9-40.79-60.11-40.79-60.11l-162.61 73.91s8.89 30.24 51.21 67.55c38.32 33.78 144.16 6.09 182.69 77.32 33.84 62.56 40.44 152 40.44 152l176.27-100.86s-1.25-73.71-51.35-132.08c-33.93-39.55-154.36-28.34-195.86-77.73Z"/>
		<path fill="#51a9a0" d="M3899.14 1599.49c-39.19-6.54-92.79 1-135.3 28.88-37 24.29-17.27 44.84 2.76 53.35 0 0 18.18 14.21 36.17 18.38s61.8-5 110.36-35.24 25.19-58.86-13.99-65.37Z"/>
		<path fill="#408c84" d="M3717.74 1566.16c-8.66 2.95-13.64 11.32-11.13 18.68s11.56 11 20.22 8 13.65-11.32 11.14-18.68-11.57-10.95-20.23-8Z"/>
		<ellipse cx="3946.41" cy="1741.93" fill="#408c84" rx="16.56" ry="17.11" transform="rotate(-18.79 3946.722 1741.999)"/>
		<path fill="#408c84" d="m3883.31 1616.78 7.2-4.51-12.55-6.13-8 5.47a62.54 62.54 0 0 0-18.54-2.21c-12.59.8-43 9.8-34.91 22.63 7 11.07 32.46 19.16 10.71 29.2-10.41 4.81-29.91-2.79-30.45-11.21-.4-6.29 4.62-10.32 4.62-10.32l-9.56-7.82s-25.08 17.65-3.77 35.92h.07l-8.35 5.72 11.7 6 8.13-5.09c14.52 5.61 33.35 4.84 45.91-1.9 14.64-7.85 11.5-23.3 3.1-29.41s-19.15-12.87-11.34-18.28 22.1-7.38 30.4-1.8 2.71 15.26 2.71 15.26l14.48 6s11.87-10.09 6.58-20.13c-1.45-2.78-4.45-5.29-8.14-7.39Z"/>
		<path fill="#51a9a0" d="M3760.61 816.47c-27.3-15.48-51.6-24.55-104.82-15.84-51.76 8.48-122.85 76.8-122.85 76.8s47.29 8.4 98.73 49.47 63.5 64.72 63.5 64.72 40.26-52.07 82.51-61.07c52.66-11.22 121 17.9 121 17.9L3776 825.85Z"/>
		<path fill="#9bcea8" d="m3794.52 849.19 3.36-6.27c-51.58-33-98.25-43.58-138.71-31.59-20.05 5.94-42 17.17-65.15 33.36a316 316 0 0 0-28.9 22.58l-5.84 5.31 7 3.71c.43.23 43 22.91 64 37.88 28.45 20.3 59.49 56.94 59.8 57.31l3.94 4.67 4.27-4.36c.24-.25 24.34-24.68 50.32-38.52a99.26 99.26 0 0 1 55-11.6c14.51 1.1 24.06 5 24.14 5l4.3-10.25c-.44-.18-11-4.53-27.12-5.82Z"/>
		<path fill="#51a9a0" d="M3781.81 836.8c-15.16-9.06-54.69-.07-28.4 32.66 28.52 35.5 54.81 45.74 70 49.8s-11.62-53.3-11.62-53.3Z"/>
		<path fill="#51a9a0" d="M3760.61 816.47s35.47 19.86 53.15 102.37c11.29 52.7 1.72 180.63 1.72 180.63s32.74-11.18 73.25-6.46c65.82 7.67 97 20.71 97 20.71s4.31-65.06-26-115.3c-72.96-121.14-199.12-181.95-199.12-181.95Z"/>
		<path fill="#9bcea8" d="M3951.55 991c-3-6.73-6.43-13.58-10.08-20.38a464 464 0 0 0-47.56-56.06L3807.33 844c-.16-.28-.17-.19-.34-.47-7.41-4.94-13.58-8.43-19.57-12 11.14 16.58 30.85 49.71 39.76 89.28 8.39 37.25.27 154 .18 155.15l-.42 6 6-.49c.35 0 35.35-2.86 65.76-.49 40.31 3.13 71.42 17.19 71.73 17.33l8.16 3.74-.85-8.94c-.21-2.3-5.52-56.01-26.19-102.11Z"/>
		<path fill="#51a9a0" d="M3860.54 882.49a548.94 548.94 0 0 0-53.55-39c4.23 9.23 34.86 56.07 66 75.48s41.52 20.15 32.3 8.29-19.12-23.26-44.75-44.77ZM3910.77 1000c-8.3-1.3-15.73 2.16-16.6 7.72s5.15 11.13 13.45 12.43 15.73-2.17 16.6-7.73-5.15-11.1-13.45-12.42ZM3683.8 876.74c-4.05 3.92-2.6 12 3.23 18s13.86 7.77 17.91 3.85 2.6-12-3.24-18-13.85-7.76-17.9-3.85Z"/>
		<path fill="#fff" d="M2264.11 1719.88h767.57v461.98h-767.57z"/>
		<path fill="#ccb272" d="M2262.88 2183.09h770v-464.44h-770Zm2.46-462h765.11v459.52h-765.11Z"/>
		<path fill="#ccb272" d="M2416.96 1719.88h2.46v461.98h-2.46z"/>
		<path fill="#ccb272" d="M2264.11 1811.86h767.57v2.46h-767.57zM2264.11 1902.68h767.57v2.46h-767.57zM2264.11 1993.51h767.57v2.46h-767.57zM2264.11 2084.33h767.57v2.46h-767.57z"/>
		<path fill="#ccb272" d="M2572.61 1719.88h2.46v461.98h-2.46zM2728.26 1719.88h2.46v461.98h-2.46zM2883.91 1719.88h2.46v461.98h-2.46z"/>
		<path fill="#93783d" d="m2843.11 1937.11-60.26-119.61-96.29 158.96-112.32-133.4-139.84 125.11-93.09-44.75-79.18 46.04 3.96 6.81 75.57-43.94 94.07 45.22 137.71-123.22 114.17 135.6 94.61-156.19 58.18 115.49 192.51-150.66-4.86-6.2-184.94 144.74z"/>
	</g>
</svg>